<svg id="Layer_1" data-name="Layer 1" xmlns="http://www.w3.org/2000/svg" viewBox="0 0 120 120"><defs><style>.cls-1{fill:none;stroke:#e35f14;stroke-miterlimit:10;stroke-width:1.5px;}.cls-2{fill:#e35f14;}</style></defs><path class="cls-1" d="M97.85,90.5H23.77c-5.39,0-9.75-4.07-9.75-9.09V41.55c0-5,4.36-9.09,9.75-9.09H97.85c5.39,0,9.75,4.07,9.75,9.09V81.41C107.6,86.43,103.24,90.5,97.85,90.5Z"/><path class="cls-2" d="M26.78,50.79a40.78,40.78,0,0,1,6.71-.47,10.39,10.39,0,0,1,6.69,1.79,6.22,6.22,0,0,1,2.34,5,6.8,6.8,0,0,1-2,5.19,10.42,10.42,0,0,1-7.13,2.31,8,8,0,0,1-1.69,0v7.77H26.78Zm5,9.93a6.59,6.59,0,0,0,1.66,0c2.59,0,4.25-1.32,4.25-3.53S36.32,54,33.83,54a8.52,8.52,0,0,0-2,.15Z"/><path class="cls-2" d="M52.24,50.81a39.07,39.07,0,0,1,6.66-.49,14.3,14.3,0,0,1,9,2.34,9.68,9.68,0,0,1,3.71,8.27,11.24,11.24,0,0,1-3.53,8.87,15.93,15.93,0,0,1-10.17,2.85,43.93,43.93,0,0,1-5.62-.34Zm4.95,17.84a8.14,8.14,0,0,0,1.71,0,6.81,6.81,0,0,0,7.53-6,7.23,7.23,0,0,0,0-1.74,6.36,6.36,0,0,0-5.69-7,6.18,6.18,0,0,0-1.29,0,12,12,0,0,0-2.23.18Z"/><path class="cls-2" d="M81.49,50.48H94.84v4.07H86.42v5h7.77V63.6H86.42v8.81H81.49Z"/></svg>